<?xml version="1.0" encoding="UTF-8" standalone="no"?><!DOCTYPE svg PUBLIC "-//W3C//DTD SVG 1.1//EN" "http://www.w3.org/Graphics/SVG/1.1/DTD/svg11.dtd"><svg xmlns="http://www.w3.org/2000/svg" xml:space="preserve" fill-rule="evenodd" stroke-linejoin="round" stroke-miterlimit="2" clip-rule="evenodd" viewBox="0 0 80 80"><path fill="#641cb3" fill-rule="nonzero" d="M37.2 60.8h12.6a5.7 5.7 0 0 0 5-5.4v-18c0-2.4-2-4.4-4.3-4.4-2.4 0-4.4 2-4.4 4.4v11.5c0 1.7-1.5 3.2-3.3 3.2h-5.6c-2.4 0-4.4 2-4.4 4.4 0 2.4 2 4.4 4.4 4.4v-.1Zm-7.5-13.3c-2.5 0-4.6-2.1-4.6-4.6V24.8a6 6 0 0 1 5.2-5.8H43c2.5 0 4.6 2.1 4.7 4.7 0 2.6-2 4.7-4.6 4.7h-5.8a3 3 0 0 0-3 3v11.5c0 2.5-2 4.6-4.6 4.6Z"/><path fill="#641cb3" fill-rule="nonzero" d="M43 19.4H30.3a5.7 5.7 0 0 0-5 5.4v18c0 2.4 2 4.4 4.4 4.4 2.3 0 4.3-2 4.3-4.4V31.5c0-1.8 1.4-3.2 3.2-3.2H43c2.4-.1 4.3-2 4.3-4.4 0-2.4-2-4.4-4.3-4.4Zm2-8.2c9.9 0 18 8.2 18 18v35.1a5.7 5.7 0 0 1-4.8 4.5H35c-10 0-18.1-8.1-18.1-18v-34c0-3.1 2.5-5.6 5.6-5.7M45 1.8H22.2c-8 0-14.5 6.6-14.5 14.6v34.5c0 15 12.3 27.2 27.2 27.2H59.1c6.9-.5 12.5-5.9 13.2-12.8V29C72.3 14.1 60 2 45.1 2H45Z"/></svg>
